<svg width="2034.1173828125px" height="356.00498046875px" xmlns="http://www.w3.org/2000/svg" viewBox="-767.05869140625 -103.00249023437499 2034.1173828125 356.00498046875" style="background: rgba(89, 104, 134, 0);" preserveAspectRatio="xMidYMid"><defs><filter id="editing-hover" x="-100%" y="-100%" width="300%" height="300%"><feFlood flood-color="#052b4a" result="flood"></feFlood><feComposite operator="in" in2="SourceAlpha" in="flood" result="shadow"></feComposite><feOffset dx="-2.6" dy="-1.9" in="SourceGraphic" result="offset-1"></feOffset><feOffset dx="2.6" dy="1.9" in="shadow" result="offset-2"></feOffset><feMerge><feMergeNode in="offset-2"></feMergeNode><feMergeNode in="offset-1"></feMergeNode></feMerge></filter></defs><g filter="url(#editing-hover)"><g transform="translate(-489.5, 147)"><path d="M84.80-84.40L84.80-84.40L139.80-84.40L139.80-84.40Q142-84.40 143.60-82.80L143.60-82.80L143.60-82.80Q145.20-81.20 145.20-79L145.20-79L145.20-53L145.20-53Q145.20-26.60 126.40-12.30L126.40-12.30L126.40-12.30Q107.60 2 76.30 2L76.30 2L76.30 2Q45 2 27-11.90L27-11.90L27-11.90Q9-25.80 9-53.60L9-53.60L9-87.20L9-87.20Q9-113.80 27.40-127.90L27.40-127.90L27.40-127.90Q45.80-142 76.50-142L76.50-142L76.50-142Q107.20-142 126.20-129.10L126.20-129.10L126.20-129.10Q145.20-116.20 145.20-97.40L145.20-97.40L145.20-97.40Q145.20-95.60 143.90-94.30L143.90-94.30L143.90-94.30Q142.60-93 140.80-93L140.80-93L96.60-93L96.60-93Q92.60-93 90.80-95.20L90.80-95.20L90.80-95.20Q86.80-100.40 84.80-101.20L84.80-101.20L84.80-101.20Q80.20-103 76.40-103L76.40-103L76.40-103Q61-103 61-88L61-88L61-54L61-54Q61-37 77.40-37L77.40-37L77.40-37Q94.20-37 94.20-51.40L94.20-51.40L84.80-51.40L84.80-51.40Q82.60-51.40 81-53L81-53L81-53Q79.40-54.60 79.40-56.80L79.40-56.80L79.40-79L79.40-79Q79.40-81.20 81-82.80L81-82.80L81-82.80Q82.60-84.40 84.80-84.40ZM181.50-127.20L181.50-127.20L181.50-127.20Q199.80-142 230-142L230-142L230-142Q260.20-142 278.50-127.10L278.50-127.10L278.50-127.10Q296.80-112.20 296.80-85.20L296.80-85.20L296.80-54L296.80-54Q296.80-26.60 278.70-12.30L278.70-12.30L278.70-12.30Q260.60 2 230 2L230 2L230 2Q199.40 2 181.30-12.30L181.30-12.30L181.30-12.30Q163.20-26.60 163.20-54L163.20-54L163.20-85.20L163.20-85.20Q163.20-112.40 181.50-127.20ZM219.20-41L219.20-41L219.20-41Q223.20-37 230-37L230-37L230-37Q236.80-37 240.80-41L240.80-41L240.80-41Q244.80-45 244.80-53.20L244.80-53.20L244.80-86.80L244.80-86.80Q244.80-94.80 240.80-98.90L240.80-98.90L240.80-98.90Q236.80-103 230-103L230-103L230-103Q223.20-103 219.20-98.90L219.20-98.90L219.20-98.90Q215.20-94.80 215.20-86.80L215.20-86.80L215.20-53.20L215.20-53.20Q215.20-45 219.20-41ZM324.20-140L324.20-140L383.80-140L383.80-140Q412.60-140 428.80-127.60L428.80-127.60L428.80-127.60Q445-115.20 445-91L445-91L445-91Q445-66.80 428.90-55.20L428.90-55.20L428.90-55.20Q412.80-43.60 383.80-43.60L383.80-43.60L370.80-43.60L370.80-5.40L370.80-5.40Q370.80-3.20 369.20-1.60L369.20-1.60L369.20-1.60Q367.60 0 365.40 0L365.40 0L324.20 0L324.20 0Q322 0 320.40-1.60L320.40-1.60L320.40-1.60Q318.80-3.20 318.80-5.40L318.80-5.40L318.80-134.60L318.80-134.60Q318.80-136.80 320.40-138.40L320.40-138.40L320.40-138.40Q322-140 324.20-140ZM383.80-102.80L369.80-102.80L369.80-80.60L383.80-80.60L383.80-80.60Q387.40-80.60 390.20-83.30L390.20-83.30L390.20-83.30Q393-86 393-91L393-91L393-91Q393-96 390.80-99.40L390.80-99.40L390.80-99.40Q388.60-102.80 383.80-102.80L383.80-102.80ZM568.20-52.20L592.80-6.60L592.80-6.60Q593.40-5.40 593.40-4L593.40-4L593.40-4Q593.40-2.60 592.10-1.30L592.10-1.30L592.10-1.30Q590.80 0 589 0L589 0L548 0L548 0Q541.80 0 539.40-5.40L539.40-5.40L522.20-43.60L514-43.60L514-5.40L514-5.40Q514-3.20 512.40-1.60L512.40-1.60L512.40-1.60Q510.80 0 508.60 0L508.60 0L469.40 0L469.40 0Q467.20 0 465.60-1.60L465.60-1.60L465.60-1.60Q464-3.20 464-5.40L464-5.40L464-134.60L464-134.60Q464-136.80 465.60-138.40L465.60-138.40L465.60-138.40Q467.20-140 469.40-140L469.40-140L528.60-140L528.60-140Q557.40-140 573.60-127.10L573.60-127.10L573.60-127.10Q589.80-114.20 589.80-90.10L589.80-90.10L589.80-90.10Q589.80-66 568.20-52.20L568.20-52.20ZM528.60-102.80L514-102.80L514-81.60L528.60-81.60L528.60-81.60Q533-81.60 535.40-84.50L535.40-84.50L535.40-84.50Q537.80-87.40 537.80-91.80L537.80-91.80L537.80-91.80Q537.80-96.20 535.50-99.50L535.50-99.50L535.50-99.50Q533.20-102.80 528.60-102.80L528.60-102.80ZM623.70-127.20L623.70-127.20L623.70-127.20Q642-142 672.20-142L672.20-142L672.20-142Q702.40-142 720.70-127.10L720.70-127.10L720.70-127.10Q739-112.20 739-85.20L739-85.20L739-54L739-54Q739-26.60 720.90-12.30L720.90-12.30L720.90-12.30Q702.80 2 672.20 2L672.20 2L672.20 2Q641.60 2 623.50-12.30L623.50-12.30L623.50-12.30Q605.40-26.60 605.40-54L605.40-54L605.40-85.20L605.40-85.20Q605.40-112.40 623.70-127.20ZM661.40-41L661.40-41L661.40-41Q665.40-37 672.20-37L672.20-37L672.20-37Q679-37 683-41L683-41L683-41Q687-45 687-53.20L687-53.20L687-86.80L687-86.80Q687-94.80 683-98.90L683-98.90L683-98.90Q679-103 672.20-103L672.20-103L672.20-103Q665.40-103 661.40-98.90L661.40-98.90L661.40-98.90Q657.40-94.80 657.40-86.80L657.40-86.80L657.40-53.20L657.40-53.20Q657.40-45 661.40-41ZM832.80-84.40L832.80-84.40L887.80-84.40L887.80-84.40Q890-84.40 891.60-82.80L891.60-82.80L891.60-82.80Q893.20-81.20 893.20-79L893.20-79L893.20-53L893.20-53Q893.20-26.60 874.40-12.30L874.40-12.30L874.40-12.30Q855.60 2 824.30 2L824.30 2L824.30 2Q793 2 775-11.90L775-11.90L775-11.90Q757-25.80 757-53.60L757-53.60L757-87.20L757-87.20Q757-113.80 775.40-127.90L775.40-127.90L775.40-127.90Q793.80-142 824.50-142L824.50-142L824.50-142Q855.20-142 874.20-129.10L874.20-129.10L874.20-129.10Q893.20-116.20 893.20-97.40L893.20-97.40L893.20-97.40Q893.20-95.60 891.90-94.30L891.90-94.30L891.90-94.30Q890.60-93 888.80-93L888.80-93L844.60-93L844.60-93Q840.60-93 838.80-95.20L838.80-95.20L838.80-95.20Q834.80-100.40 832.80-101.20L832.80-101.20L832.80-101.20Q828.20-103 824.40-103L824.40-103L824.40-103Q809-103 809-88L809-88L809-54L809-54Q809-37 825.40-37L825.40-37L825.40-37Q842.20-37 842.20-51.40L842.20-51.40L832.80-51.40L832.80-51.40Q830.60-51.40 829-53L829-53L829-53Q827.40-54.60 827.40-56.80L827.40-56.80L827.40-79L827.40-79Q827.40-81.20 829-82.80L829-82.80L829-82.80Q830.60-84.40 832.80-84.40ZM1019.40-52.20L1044-6.60L1044-6.60Q1044.60-5.40 1044.60-4L1044.60-4L1044.60-4Q1044.60-2.60 1043.30-1.30L1043.30-1.30L1043.30-1.30Q1042 0 1040.20 0L1040.20 0L999.20 0L999.20 0Q993 0 990.60-5.40L990.60-5.40L973.40-43.60L965.20-43.60L965.20-5.40L965.20-5.40Q965.20-3.20 963.60-1.60L963.60-1.60L963.60-1.60Q962 0 959.80 0L959.80 0L920.60 0L920.60 0Q918.40 0 916.80-1.60L916.80-1.60L916.80-1.60Q915.20-3.20 915.20-5.40L915.20-5.40L915.20-134.60L915.20-134.60Q915.20-136.80 916.80-138.40L916.80-138.40L916.80-138.40Q918.40-140 920.60-140L920.60-140L979.80-140L979.80-140Q1008.60-140 1024.80-127.10L1024.80-127.10L1024.80-127.10Q1041-114.20 1041-90.10L1041-90.10L1041-90.10Q1041-66 1019.40-52.20L1019.40-52.20ZM979.80-102.80L965.20-102.80L965.20-81.60L979.80-81.60L979.80-81.60Q984.20-81.60 986.60-84.50L986.60-84.50L986.60-84.50Q989-87.40 989-91.80L989-91.80L989-91.80Q989-96.20 986.70-99.50L986.70-99.50L986.70-99.50Q984.40-102.80 979.80-102.80L979.80-102.80ZM1111.60-51.60L1111.60-39L1173.20-39L1173.20-39Q1175.40-39 1177.00-37.40L1177.00-37.40L1177.00-37.40Q1178.60-35.80 1178.60-33.60L1178.60-33.60L1178.60-5.40L1178.60-5.40Q1178.60-3.20 1177.00-1.60L1177.00-1.60L1177.00-1.60Q1175.40 0 1173.20 0L1173.20 0L1069.00 0L1069.00 0Q1066.80 0 1065.20-1.60L1065.20-1.60L1065.20-1.60Q1063.60-3.20 1063.60-5.40L1063.60-5.40L1063.60-134.60L1063.60-134.60Q1063.60-136.80 1065.20-138.40L1065.20-138.40L1065.20-138.40Q1066.80-140 1069.00-140L1069.00-140L1171.60-140L1171.60-140Q1173.80-140 1175.40-138.40L1175.40-138.40L1175.40-138.40Q1177.00-136.80 1177.00-134.60L1177.00-134.60L1177.00-106.40L1177.00-106.40Q1177.00-104.20 1175.40-102.60L1175.40-102.60L1175.40-102.60Q1173.80-101 1171.60-101L1171.60-101L1111.60-101L1111.60-88.40L1167.20-88.40L1167.20-88.40Q1169.40-88.40 1171.00-86.80L1171.00-86.80L1171.00-86.80Q1172.60-85.20 1172.60-83L1172.60-83L1172.60-57L1172.60-57Q1172.60-54.80 1171.00-53.20L1171.00-53.20L1171.00-53.20Q1169.40-51.60 1167.20-51.60L1167.20-51.60L1111.60-51.60ZM1197.00-96L1197.00-96Q1197.00-116.40 1213.90-129.20L1213.90-129.20L1213.90-129.20Q1230.80-142 1258.30-142L1258.30-142L1258.30-142Q1285.80-142 1303.30-128.60L1303.30-128.60L1303.30-128.60Q1320.80-115.20 1320.80-100.60L1320.80-100.60L1320.80-100.60Q1320.80-98.80 1319.50-97.50L1319.50-97.50L1319.50-97.50Q1318.20-96.20 1316.60-96.20L1316.60-96.20L1276.60-96.20L1276.60-96.20Q1272.00-96.20 1268.20-99.60L1268.20-99.60L1268.20-99.60Q1264.40-103 1258.00-103L1258.00-103L1258.00-103Q1248.40-103 1248.40-97.40L1248.40-97.40L1248.40-97.40Q1248.40-94.40 1253.10-92.40L1253.10-92.40L1253.10-92.40Q1257.80-90.40 1270.60-88.80L1270.60-88.80L1270.60-88.80Q1300.40-85 1313.10-74.90L1313.10-74.90L1313.10-74.90Q1325.80-64.80 1325.80-44.30L1325.80-44.30L1325.80-44.30Q1325.80-23.80 1307.10-10.90L1307.10-10.90L1307.10-10.90Q1288.40 2 1258.20 2L1258.20 2L1258.20 2Q1228.00 2 1210.80-10.40L1210.80-10.40L1210.80-10.40Q1193.60-22.80 1193.60-40.60L1193.60-40.60L1193.60-40.60Q1193.60-42.40 1194.90-43.70L1194.90-43.70L1194.90-43.70Q1196.20-45 1198.00-45L1198.00-45L1236.00-45L1236.00-45Q1240.20-45 1245.30-41L1245.30-41L1245.30-41Q1250.40-37 1259.40-37L1259.40-37L1259.40-37Q1274.40-37 1274.40-42.60L1274.40-42.60L1274.40-42.60Q1274.40-46.20 1269.00-48.10L1269.00-48.10L1269.00-48.10Q1263.60-50 1248.60-52L1248.60-52L1248.60-52Q1197.00-58.80 1197.00-96L1197.00-96ZM1341.20-96L1341.20-96Q1341.20-116.40 1358.10-129.20L1358.10-129.20L1358.10-129.20Q1375.00-142 1402.50-142L1402.50-142L1402.50-142Q1430.00-142 1447.50-128.60L1447.50-128.60L1447.50-128.60Q1465.00-115.20 1465.00-100.60L1465.00-100.60L1465.00-100.60Q1465.00-98.80 1463.70-97.50L1463.70-97.50L1463.70-97.50Q1462.40-96.20 1460.80-96.20L1460.80-96.20L1420.80-96.20L1420.80-96.20Q1416.20-96.20 1412.40-99.60L1412.40-99.60L1412.40-99.60Q1408.60-103 1402.20-103L1402.20-103L1402.20-103Q1392.60-103 1392.60-97.40L1392.60-97.40L1392.60-97.40Q1392.60-94.40 1397.30-92.40L1397.30-92.40L1397.30-92.40Q1402.00-90.40 1414.80-88.80L1414.80-88.80L1414.80-88.80Q1444.60-85 1457.30-74.90L1457.30-74.90L1457.30-74.90Q1470.00-64.80 1470.00-44.30L1470.00-44.30L1470.00-44.30Q1470.00-23.80 1451.30-10.90L1451.30-10.90L1451.30-10.90Q1432.60 2 1402.40 2L1402.40 2L1402.40 2Q1372.20 2 1355.00-10.40L1355.00-10.40L1355.00-10.40Q1337.80-22.80 1337.80-40.60L1337.80-40.60L1337.80-40.60Q1337.80-42.40 1339.10-43.70L1339.10-43.70L1339.10-43.70Q1340.40-45 1342.20-45L1342.20-45L1380.20-45L1380.20-45Q1384.40-45 1389.50-41L1389.50-41L1389.50-41Q1394.60-37 1403.60-37L1403.60-37L1403.60-37Q1418.60-37 1418.60-42.60L1418.60-42.60L1418.60-42.60Q1418.60-46.20 1413.20-48.10L1413.20-48.10L1413.20-48.10Q1407.80-50 1392.80-52L1392.80-52L1392.80-52Q1341.20-58.80 1341.20-96L1341.20-96Z" fill="#ffffff"></path></g></g><style>text {
  font-size: 64px;
  font-family: Arial Black;
  dominant-baseline: central;
  text-anchor: middle;
}</style></svg>